<svg width="19" height="20" viewBox="0 0 19 20" fill="none" xmlns="http://www.w3.org/2000/svg">
<path fill-rule="evenodd" clip-rule="evenodd" d="M14.319 13.433C16.763 10.294 16.542 5.75302 13.657 2.86802C10.533 -0.255976 5.467 -0.255976 2.343 2.86802C-0.781 5.99202 -0.781 11.058 2.343 14.182C5.228 17.067 9.76903 17.288 12.907 14.844C12.921 14.859 12.935 14.874 12.95 14.889L17.192 19.132C17.583 19.522 18.216 19.522 18.607 19.132C18.997 18.741 18.997 18.108 18.607 17.718L14.364 13.475C14.349 13.46 14.334 13.446 14.319 13.433ZM12.243 4.283C14.586 6.626 14.586 10.425 12.243 12.768C9.89902 15.111 6.101 15.111 3.757 12.768C1.414 10.425 1.414 6.626 3.757 4.283C6.101 1.939 9.89902 1.939 12.243 4.283Z" fill="#656565"/>
</svg>
