<svg xmlns="http://www.w3.org/2000/svg" width="18.98" height="15.075" viewBox="0 0 18.98 15.075"><path d="M21.39,15.99a16.211,16.211,0,0,0,3.133-3.841s-3.559-6.524-9.49-6.524a8.337,8.337,0,0,0-3.309.7l.913.915a7.051,7.051,0,0,1,2.4-.426,8.846,8.846,0,0,1,6.13,2.914,15.58,15.58,0,0,1,1.969,2.424c-.069.1-.144.217-.231.342a15.649,15.649,0,0,1-1.738,2.082c-.2.2-.4.389-.613.576Z" transform="translate(-5.542 -4.612)" fill="#777"/><path d="M18.184,15.669a4.152,4.152,0,0,0-5.307-5.308l.976.976a2.966,2.966,0,0,1,3.356,3.356l.975.975ZM14.693,17.21l.975.975a4.152,4.152,0,0,1-5.307-5.307l.976.976a2.966,2.966,0,0,0,3.356,3.356Z" transform="translate(-4.784 -6.736)" fill="#777"/><path d="M3.974,11.554q-.32.285-.614.578a15.58,15.58,0,0,0-1.97,2.424l.231.342a15.649,15.649,0,0,0,1.738,2.082,8.848,8.848,0,0,0,6.13,2.914,7.027,7.027,0,0,0,2.4-.427l.913.916a8.338,8.338,0,0,1-3.309.7C3.559,21.08,0,14.556,0,14.556a16.156,16.156,0,0,1,3.133-3.841l.84.841Z" transform="translate(0 -7.018)" fill="#777"/><path d="M17.939,18.778,3.7,4.543l.84-.84L18.779,17.938Z" transform="translate(-1.751 -3.703)" fill="#777" fill-rule="evenodd"/></svg>