<svg xmlns="http://www.w3.org/2000/svg" width="18.98" height="13.049" viewBox="0 0 18.98 13.049"><path d="M18.98,12.149S15.421,5.625,9.49,5.625,0,12.149,0,12.149s3.559,6.524,9.49,6.524S18.98,12.149,18.98,12.149Zm-17.589,0A15.58,15.58,0,0,0,3.36,14.573,8.84,8.84,0,0,0,9.49,17.487a8.846,8.846,0,0,0,6.13-2.914,15.58,15.58,0,0,0,1.969-2.424A15.579,15.579,0,0,0,15.62,9.726,8.848,8.848,0,0,0,9.49,6.811a8.846,8.846,0,0,0-6.13,2.914A15.579,15.579,0,0,0,1.39,12.149Z" transform="translate(0 -5.625)" fill="#777" fill-rule="evenodd"/><path d="M14.277,11.311a2.966,2.966,0,1,0,2.966,2.966,2.966,2.966,0,0,0-2.966-2.966Zm-4.152,2.966a4.152,4.152,0,1,1,4.152,4.152A4.152,4.152,0,0,1,10.125,14.277Z" transform="translate(-4.787 -7.753)" fill="#777" fill-rule="evenodd"/></svg>