<svg width="43" height="43" viewBox="0 0 43 43" fill="none" xmlns="http://www.w3.org/2000/svg">
<g filter="url(#filter0_d)">
<path d="M31.7084 4.22917H30.2501V2.77083C30.2501 1.89583 29.6667 1.3125 28.7917 1.3125C27.9167 1.3125 27.3334 1.89583 27.3334 2.77083V4.22917H15.6667V2.77083C15.6667 1.89583 15.0834 1.3125 14.2084 1.3125C13.3334 1.3125 12.7501 1.89583 12.7501 2.77083V4.22917H11.2917C8.81258 4.22917 6.91675 6.125 6.91675 8.60417V29.0208C6.91675 31.5 8.81258 33.3958 11.2917 33.3958H31.7084C34.1876 33.3958 36.0834 31.5 36.0834 29.0208V8.60417C36.0834 6.27083 34.1876 4.22917 31.7084 4.22917ZM14.2084 27.5625C13.3334 27.5625 12.7501 26.9792 12.7501 26.1042C12.7501 25.2292 13.3334 24.6458 14.2084 24.6458C15.0834 24.6458 15.6667 25.2292 15.6667 26.1042C15.6667 26.9792 15.0834 27.5625 14.2084 27.5625ZM14.2084 21.7292C13.3334 21.7292 12.7501 21.1458 12.7501 20.2708C12.7501 19.3958 13.3334 18.8125 14.2084 18.8125C15.0834 18.8125 15.6667 19.3958 15.6667 20.2708C15.6667 21.1458 15.0834 21.7292 14.2084 21.7292ZM21.5001 27.5625C20.6251 27.5625 20.0417 26.9792 20.0417 26.1042C20.0417 25.2292 20.6251 24.6458 21.5001 24.6458C22.3751 24.6458 22.9584 25.2292 22.9584 26.1042C22.9584 26.9792 22.3751 27.5625 21.5001 27.5625ZM21.5001 21.7292C20.6251 21.7292 20.0417 21.1458 20.0417 20.2708C20.0417 19.3958 20.6251 18.8125 21.5001 18.8125C22.3751 18.8125 22.9584 19.3958 22.9584 20.2708C22.9584 21.1458 22.3751 21.7292 21.5001 21.7292ZM28.7917 27.5625C27.9167 27.5625 27.3334 26.9792 27.3334 26.1042C27.3334 25.2292 27.9167 24.6458 28.7917 24.6458C29.6667 24.6458 30.2501 25.2292 30.2501 26.1042C30.2501 26.9792 29.6667 27.5625 28.7917 27.5625ZM28.7917 21.7292C27.9167 21.7292 27.3334 21.1458 27.3334 20.2708C27.3334 19.3958 27.9167 18.8125 28.7917 18.8125C29.6667 18.8125 30.2501 19.3958 30.2501 20.2708C30.2501 21.1458 29.6667 21.7292 28.7917 21.7292ZM33.1667 12.9792H9.83341V8.60417C9.83341 7.72917 10.4167 7.14583 11.2917 7.14583H12.7501V8.60417C12.7501 9.47917 13.3334 10.0625 14.2084 10.0625C15.0834 10.0625 15.6667 9.47917 15.6667 8.60417V7.14583H27.3334V8.60417C27.3334 9.47917 27.9167 10.0625 28.7917 10.0625C29.6667 10.0625 30.2501 9.47917 30.2501 8.60417V7.14583H31.7084C32.5834 7.14583 33.1667 7.72917 33.1667 8.60417V12.9792Z" fill="#3F3F3F"/>
</g>
<defs>
<filter id="filter0_d" x="0" y="0" width="43" height="43" filterUnits="userSpaceOnUse" color-interpolation-filters="sRGB">
<feFlood flood-opacity="0" result="BackgroundImageFix"/>
<feColorMatrix in="SourceAlpha" type="matrix" values="0 0 0 0 0 0 0 0 0 0 0 0 0 0 0 0 0 0 127 0" result="hardAlpha"/>
<feOffset dy="4"/>
<feGaussianBlur stdDeviation="2"/>
<feComposite in2="hardAlpha" operator="out"/>
<feColorMatrix type="matrix" values="0 0 0 0 0 0 0 0 0 0 0 0 0 0 0 0 0 0 0.25 0"/>
<feBlend mode="normal" in2="BackgroundImageFix" result="effect1_dropShadow"/>
<feBlend mode="normal" in="SourceGraphic" in2="effect1_dropShadow" result="shape"/>
</filter>
</defs>
</svg>
