<svg width="24" height="24" viewBox="0 0 24 24" fill="none" xmlns="http://www.w3.org/2000/svg">
<g clip-path="url(#clip0_319_2)">
<path d="M23.7142 9.709L17.2829 3.27781C16.9137 2.9074 16.2681 2.9074 15.8989 3.27781L12.9493 6.22622C12.5713 6.60703 12.5713 7.227 12.9509 7.61021L13.7501 8.4002C13.2325 8.35899 12.5057 8.62698 12.4381 8.62262L10.6061 8.05501L11.0493 7.6118C11.2345 7.4266 11.3369 7.1806 11.3369 6.91941C11.3369 6.657 11.2345 6.411 11.0497 6.22701L8.10164 3.27738C7.73086 2.90819 7.08843 2.90819 6.71765 3.2786L0.28758 9.70783C0.102422 9.89303 0 10.1394 0 10.4018C0 10.663 0.102422 10.9094 0.287205 11.0934L3.23444 14.0418C3.41885 14.227 3.66522 14.329 3.92646 14.329C4.1877 14.329 4.43328 14.227 4.61886 14.0418L4.82126 13.8394C5.34327 14.9326 7.09687 17.1554 8.3197 18.3791L9.92771 19.9871C10.4205 20.4791 10.8873 20.5835 11.1929 20.5835C11.5821 20.5835 11.9477 20.4231 12.2501 20.1207C12.5462 19.8243 12.6297 19.5358 12.6485 19.3274C13.003 19.4106 13.535 19.3718 13.8577 19.0486C14.1538 18.7534 14.2373 18.4638 14.2561 18.2554C14.6106 18.3386 15.1425 18.301 15.4653 17.9778C15.7613 17.6814 15.8449 17.393 15.8633 17.1846C16.2202 17.263 16.7506 17.2278 17.0725 16.9058C17.3461 16.6318 17.6441 16.1422 17.4278 15.4602C17.8877 15.031 18.6642 14.5306 19.431 14.0746C19.6102 14.2334 19.8326 14.3286 20.0738 14.3286C20.3362 14.3286 20.5822 14.2266 20.7658 14.0414L23.7138 11.0942C24.0953 10.711 24.0953 10.091 23.7142 9.709ZM3.92684 13.0374L1.29202 10.4018L7.40962 4.2822L10.0444 6.91781L3.92684 13.0374ZM16.2673 16.0359C16.2245 16.0359 16.1425 16.0158 16.0697 15.9983C15.9465 15.9691 15.8073 15.9351 15.6521 15.9351C15.3393 15.9351 15.1353 16.0735 15.0189 16.1895C14.7469 16.4615 14.7177 16.753 14.7001 16.9279C14.6877 17.0511 14.6865 17.0579 14.6609 17.1083C14.6181 17.1083 14.5362 17.0883 14.4634 17.0707C14.3402 17.0403 14.201 17.0075 14.045 17.0075C13.7309 17.0075 13.5266 17.146 13.411 17.2619C13.139 17.5339 13.1097 17.8255 13.0922 17.9991C13.0797 18.1223 13.0786 18.1291 13.0522 18.1796C13.0094 18.1796 12.927 18.1595 12.8542 18.142C12.7318 18.1128 12.593 18.0799 12.437 18.0799C12.123 18.0799 11.9186 18.2184 11.8042 18.3332C11.531 18.6052 11.5018 18.8967 11.4842 19.0716C11.4717 19.1948 11.4706 19.2016 11.401 19.272C11.2901 19.3832 11.2166 19.3832 11.1925 19.3832C11.083 19.3832 10.9314 19.294 10.7757 19.1384L9.16773 17.5304C7.79611 16.158 6.23732 13.9703 5.63572 13.0244L9.65335 9.00672L10.5398 9.2567C9.79857 9.82272 9.21015 10.6335 8.73497 11.2223C8.57738 11.4179 8.45255 11.5751 8.36456 11.6631C7.98937 12.0383 7.87458 12.4307 8.02336 12.8316C8.13295 13.1292 8.37216 13.3684 8.67497 13.6708C8.94455 13.9403 9.28416 14.0832 9.65776 14.0832C10.4226 14.0832 11.155 13.5032 11.8634 12.9416C12.0186 12.8188 12.485 12.5031 12.7778 12.3068C13.9286 13.3544 15.0386 14.3808 15.8214 15.1632C16.4697 15.8099 16.2973 15.9823 16.2673 16.0359ZM16.7773 14.4375C16.7385 14.395 16.7129 14.3571 16.6705 14.3146C15.6442 13.2882 14.3049 12.1894 13.4813 11.4002C13.2285 11.1578 12.7725 11.2306 12.4177 11.3398C12.0033 11.4102 11.6153 11.607 11.1189 12.0002C10.6489 12.373 10.0057 12.8826 9.65809 12.8826C9.61131 12.8826 9.33929 12.6894 9.28768 12.6379C9.18807 12.5383 9.48048 12.2103 9.66929 11.9758C10.3277 11.1603 11.2033 10.2414 12.3501 9.80064C13.3253 9.42545 14.0029 9.58703 14.9001 9.60063L18.5461 13.2054C17.8889 13.6042 17.2569 14.0274 16.7773 14.4375ZM20.0741 13.0347L13.9553 6.91744L16.5909 4.283L22.7093 10.4002L20.0741 13.0347Z" fill="#2BA272"/>
</g>
<defs>
<clipPath id="clip0_319_2">
<rect width="24" height="24" fill="white"/>
</clipPath>
</defs>
</svg>
