<svg width="24" height="24" viewBox="0 0 24 24" fill="none" xmlns="http://www.w3.org/2000/svg">
<path d="M16.3718 3H6.62821C5.4012 3.00154 4.2249 3.48898 3.35728 4.3554C2.48966 5.22181 2.00155 6.39649 2 7.62179V20.2709C2.00013 20.4151 2.04305 20.5561 2.12336 20.676C2.20367 20.7959 2.31775 20.8893 2.4512 20.9445C2.58465 20.9997 2.73149 21.0141 2.87316 20.986C3.01483 20.9579 3.14498 20.8885 3.24718 20.7866L5.59928 18.4377C5.71239 18.3245 5.84681 18.2348 5.99481 18.1736C6.1428 18.1125 6.30144 18.0812 6.46159 18.0816H16.3718C17.5988 18.0801 18.7751 17.5926 19.6427 16.7262C20.5103 15.8598 20.9985 14.6851 21 13.4598V7.62179C20.9985 6.39649 20.5103 5.22181 19.6427 4.3554C18.7751 3.48898 17.5988 3.00154 16.3718 3V3ZM19.5385 13.4598C19.5374 14.2982 19.2035 15.1019 18.6098 15.6948C18.0162 16.2876 17.2113 16.6211 16.3718 16.6221H6.46159C6.10944 16.6211 5.76059 16.6898 5.43527 16.8245C5.10995 16.9591 4.81464 17.1569 4.56646 17.4064L3.46154 18.5088V7.62179C3.46257 6.78342 3.79653 5.97968 4.39017 5.38686C4.98381 4.79404 5.78867 4.46054 6.62821 4.45951H16.3718C17.2113 4.46054 18.0162 4.79404 18.6098 5.38686C19.2035 5.97968 19.5374 6.78342 19.5385 7.62179V13.4598Z" fill="#A9A9A9"/>
</svg>
