<svg width="1500" height="500" viewBox="0 0 1500 500" fill="none" xmlns="http://www.w3.org/2000/svg">
<rect width="1500" height="500" fill="black" fill-opacity="0.85"/>
<path d="M812.125 207.75H790.067L777.333 193.833H735.583V207.75H771.21L783.944 221.666H812.125V305.166H700.792V242.541H686.875V305.166C686.875 312.821 693.137 319.083 700.792 319.083H812.125C819.779 319.083 826.042 312.821 826.042 305.166V221.666C826.042 214.012 819.779 207.75 812.125 207.75ZM721.667 263.416C721.667 282.621 737.253 298.208 756.458 298.208C775.663 298.208 791.25 282.621 791.25 263.416C791.25 244.211 775.663 228.625 756.458 228.625C737.253 228.625 721.667 244.211 721.667 263.416ZM756.458 242.541C767.94 242.541 777.333 251.935 777.333 263.416C777.333 274.898 767.94 284.291 756.458 284.291C744.977 284.291 735.583 274.898 735.583 263.416C735.583 251.935 744.977 242.541 756.458 242.541ZM700.792 207.75H721.667V193.833H700.792V172.958H686.875V193.833H666V207.75H686.875V228.625H700.792V207.75Z" fill="white" fill-opacity="0.8"/>
</svg>
