<svg width="301" height="301" viewBox="0 0 301 301" fill="none" xmlns="http://www.w3.org/2000/svg">
<rect width="301" height="301" fill="black" fill-opacity="0.85"/>
<path d="M170.5 139H163.632L159.667 134.667H146.667V139H157.76L161.725 143.333H170.5V169.333H135.833V149.833H131.5V169.333C131.5 171.717 133.45 173.667 135.833 173.667H170.5C172.883 173.667 174.833 171.717 174.833 169.333V143.333C174.833 140.95 172.883 139 170.5 139ZM142.333 156.333C142.333 162.313 147.187 167.167 153.167 167.167C159.147 167.167 164 162.313 164 156.333C164 150.353 159.147 145.5 153.167 145.5C147.187 145.5 142.333 150.353 142.333 156.333ZM153.167 149.833C156.742 149.833 159.667 152.758 159.667 156.333C159.667 159.908 156.742 162.833 153.167 162.833C149.592 162.833 146.667 159.908 146.667 156.333C146.667 152.758 149.592 149.833 153.167 149.833ZM135.833 139H142.333V134.667H135.833V128.167H131.5V134.667H125V139H131.5V145.5H135.833V139Z" fill="white" fill-opacity="0.8"/>
</svg>
