<svg width="24" height="24" viewBox="0 0 24 24" fill="none" xmlns="http://www.w3.org/2000/svg">
<path d="M20.8716 0.542624C20.682 0.423835 20.4445 0.410964 20.2432 0.508623L17.5267 1.82571C15.601 2.75935 13.348 2.73119 11.4463 1.74967C9.40333 0.695201 6.96597 0.74572 4.96843 1.88304V1.07259C4.96843 0.4802 4.48823 0 3.89583 0C3.30344 0 2.82324 0.4802 2.82324 1.07259V22.9274C2.82324 23.5198 3.30344 24 3.89583 24C4.48823 24 4.96843 23.5198 4.96843 22.9274V11.8447C6.96591 10.7074 9.40327 10.6569 11.4463 11.7113C13.348 12.6928 15.601 12.721 17.5267 11.7874L20.5331 10.3297C20.9265 10.1389 21.1764 9.74016 21.1764 9.30291V1.09324C21.1764 0.869443 21.0612 0.661414 20.8716 0.542624Z" fill="#FEFEFE"/>
</svg>
