<svg width="33" height="33" viewBox="0 0 33 33" fill="none" xmlns="http://www.w3.org/2000/svg">
<path d="M16.5 8.25C18.0125 8.25 19.25 9.4875 19.25 11C19.25 12.5125 18.0125 13.75 16.5 13.75C14.9875 13.75 13.75 12.5125 13.75 11C13.75 9.4875 14.9875 8.25 16.5 8.25ZM16.5 22C20.2125 22 24.475 23.7738 24.75 24.75H8.25C8.56625 23.76 12.8012 22 16.5 22ZM16.5 5.5C13.4612 5.5 11 7.96125 11 11C11 14.0387 13.4612 16.5 16.5 16.5C19.5387 16.5 22 14.0387 22 11C22 7.96125 19.5387 5.5 16.5 5.5ZM16.5 19.25C12.8287 19.25 5.5 21.0925 5.5 24.75V27.5H27.5V24.75C27.5 21.0925 20.1713 19.25 16.5 19.25Z" fill="#3F3F3F"/>
</svg>
