<svg width="34" height="34" viewBox="0 0 34 34" fill="none" xmlns="http://www.w3.org/2000/svg">
<path d="M12.7499 19.4791C9.43492 19.4791 2.83325 21.1366 2.83325 24.4374V26.9166H22.6666V24.4374C22.6666 21.1366 16.0649 19.4791 12.7499 19.4791ZM6.14825 24.0833C7.33825 23.2616 10.2141 22.3124 12.7499 22.3124C15.2858 22.3124 18.1616 23.2616 19.3516 24.0833H6.14825ZM12.7499 16.9999C15.4841 16.9999 17.7083 14.7758 17.7083 12.0416C17.7083 9.30742 15.4841 7.08325 12.7499 7.08325C10.0158 7.08325 7.79159 9.30742 7.79159 12.0416C7.79159 14.7758 10.0158 16.9999 12.7499 16.9999ZM12.7499 9.91659C13.9258 9.91659 14.8749 10.8658 14.8749 12.0416C14.8749 13.2174 13.9258 14.1666 12.7499 14.1666C11.5741 14.1666 10.6249 13.2174 10.6249 12.0416C10.6249 10.8658 11.5741 9.91659 12.7499 9.91659ZM22.7233 19.5641C24.3666 20.7541 25.4999 22.3408 25.4999 24.4374V26.9166H31.1666V24.4374C31.1666 21.5758 26.2083 19.9466 22.7233 19.5641ZM21.2499 16.9999C23.9841 16.9999 26.2083 14.7758 26.2083 12.0416C26.2083 9.30742 23.9841 7.08325 21.2499 7.08325C20.4849 7.08325 19.7766 7.26742 19.1249 7.57909C20.0174 8.83992 20.5416 10.3841 20.5416 12.0416C20.5416 13.6991 20.0174 15.2433 19.1249 16.5041C19.7766 16.8158 20.4849 16.9999 21.2499 16.9999Z" fill="#3F3F3F"/>
</svg>
