<svg width="31" height="31" viewBox="0 0 31 31" fill="none" xmlns="http://www.w3.org/2000/svg">
<rect width="31" height="31" fill="white"/>
<path d="M15.4999 2.58325C10.5012 2.58325 6.45825 6.62617 6.45825 11.6249C6.45825 18.4062 15.4999 28.4166 15.4999 28.4166C15.4999 28.4166 24.5416 18.4062 24.5416 11.6249C24.5416 6.62617 20.4987 2.58325 15.4999 2.58325ZM9.04159 11.6249C9.04159 8.05992 11.9349 5.16659 15.4999 5.16659C19.0649 5.16659 21.9583 8.05992 21.9583 11.6249C21.9583 15.3449 18.2383 20.912 15.4999 24.3866C12.8133 20.9378 9.04159 15.3062 9.04159 11.6249Z" fill="#3F3F3F"/>
<path d="M15.4999 14.8541C17.2833 14.8541 18.7291 13.4083 18.7291 11.6249C18.7291 9.8415 17.2833 8.39575 15.4999 8.39575C13.7165 8.39575 12.2708 9.8415 12.2708 11.6249C12.2708 13.4083 13.7165 14.8541 15.4999 14.8541Z" fill="#3F3F3F"/>
</svg>
