<svg width="24" height="24" viewBox="0 0 24 24" fill="none" xmlns="http://www.w3.org/2000/svg">
<path d="M17.2646 14.2077C16.2151 14.2077 15.2754 14.6865 14.652 15.437L10.5964 13.1344C10.7225 12.7795 10.7918 12.3979 10.7918 12.0002C10.7918 11.6026 10.7225 11.221 10.5964 10.8661L14.6517 8.56297C15.275 9.31374 16.2148 9.7927 17.2645 9.7927C19.1368 9.7927 20.66 8.26891 20.66 6.39583C20.6602 4.52332 19.1369 3 17.2646 3C15.3921 3 13.8687 4.52332 13.8687 6.39576C13.8687 6.79344 13.938 7.17512 14.0642 7.5301L10.0087 9.83334C9.38528 9.08297 8.44573 8.60432 7.39639 8.60432C5.52363 8.60432 4 10.1276 4 12.0002C4 13.8726 5.52363 15.3959 7.39639 15.3959C8.44573 15.3959 9.3852 14.9173 10.0086 14.167L14.0642 16.4697C13.938 16.8246 13.8686 17.2064 13.8686 17.6042C13.8686 19.4766 15.392 20.9999 17.2646 20.9999C19.1368 20.9999 20.6601 19.4765 20.6601 17.6042C20.6602 15.7314 19.1369 14.2077 17.2646 14.2077ZM17.2646 4.1883C18.4817 4.1883 19.4719 5.17854 19.4719 6.39576C19.4719 7.6136 18.4817 8.60432 17.2646 8.60432C16.0473 8.60432 15.057 7.6136 15.057 6.39576C15.057 5.17854 16.0473 4.1883 17.2646 4.1883ZM7.39647 14.2077C6.17894 14.2077 5.18838 13.2174 5.18838 12.0002C5.18838 10.7829 6.17894 9.7927 7.39647 9.7927C8.61352 9.7927 9.60361 10.7829 9.60361 12.0002C9.60361 13.2174 8.61344 14.2077 7.39647 14.2077ZM17.2646 19.8117C16.0473 19.8117 15.057 18.8214 15.057 17.6042C15.057 16.3866 16.0473 15.396 17.2646 15.396C18.4817 15.396 19.4719 16.3866 19.4719 17.6042C19.4719 18.8214 18.4817 19.8117 17.2646 19.8117Z" fill="#A9A9A9"/>
</svg>
