<svg width="24" height="24" viewBox="0 0 24 24" fill="none" xmlns="http://www.w3.org/2000/svg">
<path d="M12.9622 2.32687C12.5741 1.89104 11.7592 1.89104 11.3711 2.32687L3.22236 11.5021C3.10281 11.6372 3.02798 11.7999 3.00645 11.9716C2.98492 12.1432 3.01756 12.3168 3.10063 12.4725C3.1837 12.6282 3.31383 12.7597 3.47608 12.8517C3.63833 12.9438 3.82612 12.9928 4.01788 12.9931H8.09227V20.5825C8.09227 20.8258 8.19959 21.0592 8.39061 21.2313C8.58164 21.4033 8.84072 21.5 9.11087 21.5H15.2225C15.4926 21.5 15.7517 21.4033 15.9427 21.2313C16.1337 21.0592 16.2411 20.8258 16.2411 20.5825V12.9931H20.3154C20.5072 12.9928 20.695 12.9438 20.8573 12.8517C21.0195 12.7597 21.1496 12.6282 21.2327 12.4725C21.3158 12.3168 21.3484 12.1432 21.3269 11.9716C21.3054 11.7999 21.2305 11.6372 21.111 11.5021L12.9622 2.32687ZM15.2225 12V15.3333V20.4809H12.3738H9.25645V12H4.25645L12.1731 2.83333L20.3154 11.9716L18.0064 12H15.2225Z" fill="#f91880"/>
</svg>
