<svg width="24" height="24" viewBox="0 0 24 24" fill="none" xmlns="http://www.w3.org/2000/svg">
<path d="M12.9622 1.32687C12.5741 0.891044 11.7592 0.891044 11.3711 1.32687L3.22236 10.5021C3.10281 10.6372 3.02798 10.7999 3.00645 10.9716C2.98492 11.1432 3.01756 11.3168 3.10063 11.4725C3.1837 11.6282 3.31383 11.7597 3.47608 11.8517C3.63833 11.9438 3.82612 11.9928 4.01788 11.9931H8.09227V20.5825C8.09227 20.8258 8.19959 21.0592 8.39061 21.2313C8.58164 21.4033 8.84072 21.5 9.11087 21.5H15.2225C15.4926 21.5 15.7517 21.4033 15.9427 21.2313C16.1337 21.0592 16.2411 20.8258 16.2411 20.5825V11.9931H20.3154C20.5072 11.9928 20.695 11.9438 20.8573 11.8517C21.0195 11.7597 21.1496 11.6282 21.2327 11.4725C21.3158 11.3168 21.3484 11.1432 21.3269 10.9716C21.3054 10.7999 21.2305 10.6372 21.111 10.5021L12.9622 1.32687ZM15.2225 11V14.3333V20.4809H12.3738H9.25645V11H4.25645L12.1731 1.83333L20.3154 10.9716L18.0064 11H15.2225Z" fill="#A9A9A9"/>
</svg>
