<svg width="26" height="21" viewBox="0 0 26 21" fill="none" xmlns="http://www.w3.org/2000/svg">
<path d="M13.7071 13.2929C13.3166 12.9024 12.6834 12.9024 12.2929 13.2929C11.9023 13.6834 11.9023 14.3166 12.2929 14.7071L13.7071 13.2929ZM17.042 19.4563L17.7491 20.1634L19.1633 18.7491L18.4562 18.042L17.042 19.4563ZM12.2929 14.7071L17.042 19.4563L18.4562 18.042L13.7071 13.2929L12.2929 14.7071Z" fill="#FEFEFE"/>
<path d="M13.7071 7.29289C13.3166 6.90237 12.6834 6.90237 12.2929 7.29289C11.9023 7.68342 11.9023 8.31658 12.2929 8.70711L13.7071 7.29289ZM20.3538 16.768L21.0609 17.4752L22.4751 16.0609L21.768 15.3538L20.3538 16.768ZM12.2929 8.70711L20.3538 16.768L21.768 15.3538L13.7071 7.29289L12.2929 8.70711Z" fill="#FEFEFE"/>
<path d="M13.7071 0.292893C13.3166 -0.097631 12.6834 -0.0976311 12.2929 0.292893C11.9023 0.683417 11.9023 1.31658 12.2929 1.70711L13.7071 0.292893ZM23.6665 13.0808L24.3736 13.7879L25.7878 12.3737L25.0807 11.6666L23.6665 13.0808ZM12.2929 1.70711L23.6665 13.0808L25.0807 11.6666L13.7071 0.292893L12.2929 1.70711Z" fill="#FEFEFE"/>
<path d="M11.5843 17.7071C11.9748 17.3166 11.9748 16.6834 11.5843 16.2929C11.1937 15.9024 10.5606 15.9024 10.1701 16.2929L11.5843 17.7071ZM8.29285 18.1701L7.58575 18.8772L8.99996 20.2914L9.70707 19.5843L8.29285 18.1701ZM10.1701 16.2929L8.29285 18.1701L9.70707 19.5843L11.5843 17.7071L10.1701 16.2929Z" fill="#4BA273"/>
<path d="M11.7618 10.6514C12.1523 10.2609 12.1523 9.62775 11.7618 9.23723C11.3713 8.84671 10.7381 8.84671 10.3476 9.23723L11.7618 10.6514ZM4.60557 14.9793L3.89846 15.6864L5.31268 17.1006L6.01978 16.3935L4.60557 14.9793ZM10.3476 9.23723L4.60557 14.9793L6.01978 16.3935L11.7618 10.6514L10.3476 9.23723Z" fill="#4BA273"/>
<path d="M9.11168 6.67616C9.5022 6.28564 9.5022 5.65247 9.11168 5.26195C8.72115 4.87142 8.08799 4.87142 7.69746 5.26195L9.11168 6.67616ZM1.29288 11.6665L0.585773 12.3736L1.99999 13.7879L2.70709 13.0807L1.29288 11.6665ZM7.69746 5.26195L1.29288 11.6665L2.70709 13.0807L9.11168 6.67616L7.69746 5.26195Z" fill="#4BA273"/>
</svg>
